<?xml version="1.0" encoding="UTF-8"?>
<svg width="390px" height="96px" viewBox="0 0 390 96" version="1.1" xmlns="http://www.w3.org/2000/svg" xmlns:xlink="http://www.w3.org/1999/xlink">
    <title>Rectangle</title>
    <defs>
        <linearGradient x1="100%" y1="14.7870649%" x2="0%" y2="14.7870649%" id="linearGradient-1">
            <stop stop-color="#E69277" stop-opacity="0" offset="0%"></stop>
            <stop stop-color="#E69277" stop-opacity="0.892463737" offset="33.4838014%"></stop>
            <stop stop-color="#E69277" stop-opacity="0.892463737" offset="49.4753537%"></stop>
            <stop stop-color="#FFCDBD" stop-opacity="0.852106268" offset="66.3199471%"></stop>
            <stop stop-color="#FFCDBD" stop-opacity="0" offset="100%"></stop>
        </linearGradient>
        <path d="M0,834.558706 C54.3670501,826.192148 93.851722,820.708357 118.454016,818.107331 C155.357456,814.205792 150.554524,759 195,759 C239.445476,759 229.925954,814.205792 267.935522,818.107331 C293.275234,820.708357 333.963393,826.192148 390,834.558706 L390,844 L0,844 L0,834.558706 Z" id="path-2"></path>
        <filter x="-4.1%" y="-18.8%" width="108.2%" height="137.6%" filterUnits="objectBoundingBox" id="filter-3">
            <feMorphology radius="1" operator="dilate" in="SourceAlpha" result="shadowSpreadOuter1"></feMorphology>
            <feOffset dx="0" dy="0" in="shadowSpreadOuter1" result="shadowOffsetOuter1"></feOffset>
            <feGaussianBlur stdDeviation="5" in="shadowOffsetOuter1" result="shadowBlurOuter1"></feGaussianBlur>
            <feComposite in="shadowBlurOuter1" in2="SourceAlpha" operator="out" result="shadowBlurOuter1"></feComposite>
            <feColorMatrix values="0 0 0 0 0   0 0 0 0 0   0 0 0 0 0  0 0 0 0.5 0" type="matrix" in="shadowBlurOuter1"></feColorMatrix>
        </filter>
    </defs>
    <g id="Page-1" stroke="none" stroke-width="1" fill="none" fill-rule="evenodd">
        <g id="Rectangle" transform="translate(0.000000, -748.000000)">
            <use fill="black" fill-opacity="1" filter="url(#filter-3)" xlink:href="#path-2"></use>
            <path stroke="url(#linearGradient-1)" stroke-width="1" d="M195,758.5 C204.651875,758.5 211.788994,761.076376 217.429307,765.151343 C224.910268,770.556126 229.751938,778.616473 234.318872,786.84879 L234.318872,786.84879 L235.267374,788.56554 L235.588945,789.149346 L235.588945,789.149346 L236.030981,789.9519 C243.250864,803.054838 250.537069,815.818818 267.986577,817.609944 C293.395066,820.21803 334.232584,825.723812 390.499084,834.127691 L390.499084,834.127691 L390.5,844.5 L-0.499987583,844.5 L-0.500245111,834.129815 C54.0964283,825.724832 93.7303429,820.218403 118.401447,817.610102 C135.520239,815.800254 143.536537,802.793532 151.776653,789.547272 L151.776653,789.547272 L152.637451,788.164852 C152.924884,787.704031 153.212942,787.243338 153.501994,786.783207 L154.081535,785.863823 C162.991537,771.782019 173.069364,758.5 195,758.5 Z" fill="#1B1F22" fill-rule="evenodd"></path>
        </g>
    </g>
</svg>