<?xml version="1.0" encoding="UTF-8"?>
<svg width="193px" height="18px" viewBox="0 0 193 18" version="1.1" xmlns="http://www.w3.org/2000/svg" xmlns:xlink="http://www.w3.org/1999/xlink">
    <title>MUJ UNIFIED</title>
    <defs>
        <linearGradient x1="97.8144186%" y1="82.0487248%" x2="25.4516882%" y2="17.9512752%" id="linearGradient-1">
            <stop stop-color="#E69277" stop-opacity="0.892463737" offset="0.0897174115%"></stop>
            <stop stop-color="#FFCDBD" stop-opacity="0.852106268" offset="100%"></stop>
        </linearGradient>
        <linearGradient x1="97.8144186%" y1="90.1954898%" x2="25.4516882%" y2="9.8045102%" id="linearGradient-2">
            <stop stop-color="#E69277" stop-opacity="0.892463737" offset="0.0897174115%"></stop>
            <stop stop-color="#FFCDBD" stop-opacity="0.852106268" offset="100%"></stop>
        </linearGradient>
        <linearGradient x1="86.7860788%" y1="100%" x2="31.1137277%" y2="0%" id="linearGradient-3">
            <stop stop-color="#E69277" stop-opacity="0.892463737" offset="0.0897174115%"></stop>
            <stop stop-color="#FFCDBD" stop-opacity="0.852106268" offset="100%"></stop>
        </linearGradient>
        <linearGradient x1="97.8144186%" y1="89.0757715%" x2="25.4516882%" y2="10.9242285%" id="linearGradient-4">
            <stop stop-color="#E69277" stop-opacity="0.892463737" offset="0.0897174115%"></stop>
            <stop stop-color="#FFCDBD" stop-opacity="0.852106268" offset="100%"></stop>
        </linearGradient>
        <linearGradient x1="54.7621554%" y1="100%" x2="47.5550706%" y2="0%" id="linearGradient-5">
            <stop stop-color="#E69277" stop-opacity="0.892463737" offset="0.0897174115%"></stop>
            <stop stop-color="#FFCDBD" stop-opacity="0.852106268" offset="100%"></stop>
        </linearGradient>
        <linearGradient x1="92.740558%" y1="100%" x2="28.0566496%" y2="0%" id="linearGradient-6">
            <stop stop-color="#E69277" stop-opacity="0.892463737" offset="0.0897174115%"></stop>
            <stop stop-color="#FFCDBD" stop-opacity="0.852106268" offset="100%"></stop>
        </linearGradient>
        <linearGradient x1="89.6272437%" y1="100%" x2="29.6550505%" y2="0%" id="linearGradient-7">
            <stop stop-color="#E69277" stop-opacity="0.892463737" offset="0.0897174115%"></stop>
            <stop stop-color="#FFCDBD" stop-opacity="0.852106268" offset="100%"></stop>
        </linearGradient>
        <linearGradient x1="97.8144186%" y1="89.4728132%" x2="25.4516882%" y2="10.5271868%" id="linearGradient-8">
            <stop stop-color="#E69277" stop-opacity="0.892463737" offset="0.0897174115%"></stop>
            <stop stop-color="#FFCDBD" stop-opacity="0.852106268" offset="100%"></stop>
        </linearGradient>
    </defs>
    <g id="Page-1" stroke="none" stroke-width="1" fill="none" fill-rule="evenodd">
        <g id="iPhone-13" transform="translate(-75.000000, -52.000000)" fill-rule="nonzero">
            <g id="MUJ-UNIFIED" transform="translate(75.640000, 52.500000)">
                <path d="M0,15.96 C0.16,15.96 0.3,15.915 0.42,15.825 C0.54,15.735 0.6,15.6 0.6,15.42 L0.6,1.74 C0.6,1.56 0.54,1.435 0.42,1.365 C0.3,1.295 0.16,1.26 0,1.26 L0,0.72 L5.61,0.72 L5.61,1.26 C5.51,1.26 5.405,1.29 5.295,1.35 C5.185,1.41 5.13,1.5 5.13,1.62 C5.13,1.72 5.17,1.85 5.25,2.01 C5.33,2.17 5.42,2.34 5.52,2.52 L9.81,10.32 L14.13,2.61 C14.27,2.35 14.375,2.145 14.445,1.995 C14.515,1.845 14.55,1.71 14.55,1.59 C14.55,1.37 14.42,1.26 14.16,1.26 L14.16,0.72 L19.71,0.72 L19.71,1.26 C19.55,1.26 19.41,1.295 19.29,1.365 C19.17,1.435 19.11,1.56 19.11,1.74 L19.11,15.42 C19.11,15.6 19.17,15.735 19.29,15.825 C19.41,15.915 19.55,15.96 19.71,15.96 L19.71,16.5 L15,16.5 L15,15.96 C15.54,15.96 15.81,15.78 15.81,15.42 L15.81,5.46 L15.75,5.46 L9.72,16.5 L9.63,16.5 L3.72,5.43 L3.66,5.43 L3.66,15.42 C3.66,15.78 3.94,15.96 4.5,15.96 L4.5,16.5 L0,16.5 L0,15.96 Z" id="Path" fill="url(#linearGradient-1)"></path>
                <path d="M29.25,1.26 C28.81,1.26 28.59,1.44 28.59,1.8 L28.59,10.8 C28.59,12.06 28.995,12.925 29.805,13.395 C30.615,13.865 31.8,14.1 33.36,14.1 C34.92,14.1 36.105,13.865 36.915,13.395 C37.725,12.925 38.13,12.06 38.13,10.8 L38.13,1.8 C38.13,1.44 37.83,1.26 37.23,1.26 L37.23,0.72 L42.03,0.72 L42.03,1.26 C41.55,1.26 41.31,1.44 41.31,1.8 L41.31,10.65 C41.31,11.83 41.14,12.805 40.8,13.575 C40.46,14.345 39.95,14.96 39.27,15.42 C38.59,15.88 37.745,16.19 36.735,16.35 C35.725,16.51 34.56,16.59 33.24,16.59 C31.92,16.59 30.755,16.51 29.745,16.35 C28.735,16.19 27.89,15.88 27.21,15.42 C26.53,14.96 26.02,14.345 25.68,13.575 C25.34,12.805 25.17,11.83 25.17,10.65 L25.17,1.8 C25.17,1.44 24.89,1.26 24.33,1.26 L24.33,0.72 L29.25,0.72 L29.25,1.26 Z" id="Path" fill="url(#linearGradient-2)"></path>
                <path d="M45.09,12.12 L45.57,12.3 C45.63,12.62 45.785,12.9 46.035,13.14 C46.285,13.38 46.59,13.585 46.95,13.755 C47.31,13.925 47.7,14.055 48.12,14.145 C48.54,14.235 48.94,14.28 49.32,14.28 C50.52,14.28 51.395,14.105 51.945,13.755 C52.495,13.405 52.77,12.75 52.77,11.79 L52.77,2.16 C52.77,1.88 52.65,1.66 52.41,1.5 C52.17,1.34 51.94,1.26 51.72,1.26 L51.72,0.72 L57.42,0.72 L57.42,1.26 C57.08,1.26 56.79,1.34 56.55,1.5 C56.31,1.66 56.19,1.88 56.19,2.16 L56.19,12.06 C56.19,12.84 56.025,13.52 55.695,14.1 C55.365,14.68 54.9,15.16 54.3,15.54 C53.7,15.92 52.99,16.19 52.17,16.35 C51.35,16.51 50.44,16.59 49.44,16.59 C48.82,16.59 48.25,16.55 47.73,16.47 C47.21,16.39 46.745,16.295 46.335,16.185 C45.925,16.075 45.565,15.97 45.255,15.87 C44.945,15.77 44.69,15.72 44.49,15.72 C44.27,15.72 44.09,15.84 43.95,16.08 L43.5,15.78 L45.09,12.12 Z" id="Path" fill="url(#linearGradient-3)"></path>
                <path d="M75.06,1.26 C74.62,1.26 74.4,1.44 74.4,1.8 L74.4,10.8 C74.4,12.06 74.805,12.925 75.615,13.395 C76.425,13.865 77.61,14.1 79.17,14.1 C80.73,14.1 81.915,13.865 82.725,13.395 C83.535,12.925 83.94,12.06 83.94,10.8 L83.94,1.8 C83.94,1.44 83.64,1.26 83.04,1.26 L83.04,0.72 L87.84,0.72 L87.84,1.26 C87.36,1.26 87.12,1.44 87.12,1.8 L87.12,10.65 C87.12,11.83 86.95,12.805 86.61,13.575 C86.27,14.345 85.76,14.96 85.08,15.42 C84.4,15.88 83.555,16.19 82.545,16.35 C81.535,16.51 80.37,16.59 79.05,16.59 C77.73,16.59 76.565,16.51 75.555,16.35 C74.545,16.19 73.7,15.88 73.02,15.42 C72.34,14.96 71.83,14.345 71.49,13.575 C71.15,12.805 70.98,11.83 70.98,10.65 L70.98,1.8 C70.98,1.44 70.7,1.26 70.14,1.26 L70.14,0.72 L75.06,0.72 L75.06,1.26 Z" id="Path" fill="url(#linearGradient-2)"></path>
                <path d="M92.55,15.96 C92.93,15.96 93.12,15.78 93.12,15.42 L93.12,1.8 C93.12,1.44 92.93,1.26 92.55,1.26 L92.55,0.72 L97.68,0.72 L97.68,1.26 C97.52,1.26 97.44,1.36 97.44,1.56 C97.44,1.72 97.64,2 98.04,2.4 L106.65,11.34 L106.65,1.8 C106.65,1.44 106.39,1.26 105.87,1.26 L105.87,0.72 L110.4,0.72 L110.4,1.26 C110.02,1.26 109.83,1.44 109.83,1.8 L109.83,15.42 C109.83,15.78 110.02,15.96 110.4,15.96 L110.4,16.5 L105.54,16.5 L105.54,15.96 C105.8,15.96 105.93,15.87 105.93,15.69 C105.93,15.55 105.77,15.32 105.45,15 L96.3,5.46 L96.3,15.42 C96.3,15.78 96.53,15.96 96.99,15.96 L96.99,16.5 L92.55,16.5 L92.55,15.96 Z" id="Path" fill="url(#linearGradient-4)"></path>
                <path d="M115.65,15.96 C116.17,15.96 116.43,15.78 116.43,15.42 L116.43,1.8 C116.43,1.44 116.17,1.26 115.65,1.26 L115.65,0.72 L120.63,0.72 L120.63,1.26 C120.11,1.26 119.85,1.44 119.85,1.8 L119.85,15.42 C119.85,15.78 120.11,15.96 120.63,15.96 L120.63,16.5 L115.65,16.5 L115.65,15.96 Z" id="Path" fill="url(#linearGradient-5)"></path>
                <path d="M140.19,3.96 C140.19,3.74 140.105,3.575 139.935,3.465 C139.765,3.355 139.47,3.3 139.05,3.3 L129.33,3.3 L129.33,7.02 L135.21,7.02 C135.61,7.02 135.92,6.98 136.14,6.9 C136.36,6.82 136.47,6.64 136.47,6.36 L137.01,6.36 L137.01,10.68 L136.47,10.68 C136.47,10.22 136.36,9.925 136.14,9.795 C135.92,9.665 135.61,9.6 135.21,9.6 L129.33,9.6 L129.33,15.42 C129.33,15.6 129.415,15.735 129.585,15.825 C129.755,15.915 129.97,15.96 130.23,15.96 L130.23,16.5 L125.13,16.5 L125.13,15.96 C125.65,15.96 125.91,15.78 125.91,15.42 L125.91,1.8 C125.91,1.44 125.65,1.26 125.13,1.26 L125.13,0.72 L139.05,0.72 C139.47,0.72 139.765,0.655 139.935,0.525 C140.105,0.395 140.19,0.22 140.19,0 L140.73,0 L140.73,3.96 L140.19,3.96 Z" id="Path" fill="url(#linearGradient-6)"></path>
                <path d="M143.97,15.96 C144.49,15.96 144.75,15.78 144.75,15.42 L144.75,1.8 C144.75,1.44 144.49,1.26 143.97,1.26 L143.97,0.72 L148.95,0.72 L148.95,1.26 C148.43,1.26 148.17,1.44 148.17,1.8 L148.17,15.42 C148.17,15.78 148.43,15.96 148.95,15.96 L148.95,16.5 L143.97,16.5 L143.97,15.96 Z" id="Path" fill="url(#linearGradient-5)"></path>
                <path d="M168.87,3.96 C168.87,3.74 168.785,3.575 168.615,3.465 C168.445,3.355 168.15,3.3 167.73,3.3 L158.01,3.3 L158.01,7.02 L163.89,7.02 C164.29,7.02 164.6,6.965 164.82,6.855 C165.04,6.745 165.15,6.46 165.15,6 L165.69,6 L165.69,10.68 L165.15,10.68 C165.15,10.22 165.04,9.925 164.82,9.795 C164.6,9.665 164.29,9.6 163.89,9.6 L158.01,9.6 L158.01,13.74 L168.03,13.74 C168.33,13.74 168.575,13.67 168.765,13.53 C168.955,13.39 169.05,13.2 169.05,12.96 L169.59,12.96 L169.59,17.07 L169.05,17.07 C169.05,16.77 168.955,16.6 168.765,16.56 C168.575,16.52 168.33,16.5 168.03,16.5 L154.05,16.5 L154.05,15.96 C154.19,15.96 154.315,15.915 154.425,15.825 C154.535,15.735 154.59,15.6 154.59,15.42 L154.59,1.8 C154.59,1.62 154.535,1.485 154.425,1.395 C154.315,1.305 154.19,1.26 154.05,1.26 L154.05,0.72 L167.73,0.72 C168.15,0.72 168.445,0.655 168.615,0.525 C168.785,0.395 168.87,0.22 168.87,0 L169.41,0 L169.41,3.96 L168.87,3.96 Z" id="Path" fill="url(#linearGradient-7)"></path>
                <path d="M182.46,13.92 C183.4,13.92 184.22,13.84 184.92,13.68 C185.62,13.52 186.2,13.235 186.66,12.825 C187.12,12.415 187.465,11.87 187.695,11.19 C187.925,10.51 188.04,9.65 188.04,8.61 C188.04,7.57 187.925,6.71 187.695,6.03 C187.465,5.35 187.12,4.805 186.66,4.395 C186.2,3.985 185.62,3.7 184.92,3.54 C184.22,3.38 183.4,3.3 182.46,3.3 L177.81,3.3 L177.81,13.92 L182.46,13.92 Z M183.66,0.72 C184.76,0.72 185.785,0.88 186.735,1.2 C187.685,1.52 188.51,2.005 189.21,2.655 C189.91,3.305 190.46,4.125 190.86,5.115 C191.26,6.105 191.46,7.27 191.46,8.61 C191.46,9.95 191.26,11.115 190.86,12.105 C190.46,13.095 189.91,13.915 189.21,14.565 C188.51,15.215 187.685,15.7 186.735,16.02 C185.785,16.34 184.76,16.5 183.66,16.5 L173.7,16.5 L173.7,15.96 C174.16,15.96 174.39,15.78 174.39,15.42 L174.39,1.8 C174.39,1.44 174.16,1.26 173.7,1.26 L173.7,0.72 L183.66,0.72 Z" id="Shape" fill="url(#linearGradient-8)"></path>
            </g>
        </g>
    </g>
</svg>