<?xml version="1.0" encoding="UTF-8"?>
<svg width="390px" height="96px" viewBox="0 0 390 96" version="1.1" xmlns="http://www.w3.org/2000/svg" xmlns:xlink="http://www.w3.org/1999/xlink">
    <title>Rectangle</title>
    <defs>
        <linearGradient x1="100%" y1="14.7870649%" x2="0%" y2="14.7870649%" id="linearGradient-1">
            <stop stop-color="#E69277" stop-opacity="0" offset="0%"></stop>
            <stop stop-color="#E69277" stop-opacity="0.892463737" offset="33.4838014%"></stop>
            <stop stop-color="#E69277" stop-opacity="0.892463737" offset="49.4753537%"></stop>
            <stop stop-color="#FFCDBD" stop-opacity="0.852106268" offset="66.3199471%"></stop>
            <stop stop-color="#FFCDBD" stop-opacity="0" offset="100%"></stop>
        </linearGradient>
        <path d="M0,771.780996 C53.8743151,771.780996 92.8743151,771.780996 117,771.780996 C153.188527,771.780996 166.012658,759 195,759 C223.987342,759 234.163212,771.780996 274,771.780996 C300.557859,771.780996 339.224525,771.780996 390,771.780996 L390,844 L0,844 L0,771.780996 Z" id="path-2"></path>
        <filter x="-4.1%" y="-18.8%" width="108.2%" height="137.6%" filterUnits="objectBoundingBox" id="filter-3">
            <feMorphology radius="1" operator="dilate" in="SourceAlpha" result="shadowSpreadOuter1"></feMorphology>
            <feOffset dx="0" dy="0" in="shadowSpreadOuter1" result="shadowOffsetOuter1"></feOffset>
            <feGaussianBlur stdDeviation="5" in="shadowOffsetOuter1" result="shadowBlurOuter1"></feGaussianBlur>
            <feComposite in="shadowBlurOuter1" in2="SourceAlpha" operator="out" result="shadowBlurOuter1"></feComposite>
            <feColorMatrix values="0 0 0 0 0   0 0 0 0 0   0 0 0 0 0  0 0 0 0.5 0" type="matrix" in="shadowBlurOuter1"></feColorMatrix>
        </filter>
    </defs>
    <g id="Page-1" stroke="none" stroke-width="1" fill="none" fill-rule="evenodd">
        <g id="Rectangle" transform="translate(0.000000, -748.000000)">
            <use fill="black" fill-opacity="1" filter="url(#filter-3)" xlink:href="#path-2"></use>
            <path stroke="url(#linearGradient-1)" stroke-width="1" d="M195,758.5 C208.400179,758.5 217.797966,761.215807 227.940644,764.151504 C239.745077,767.568179 252.566218,771.280996 274,771.280996 L274,771.280996 L390.5,771.280996 L390.5,844.5 L-0.5,844.5 L-0.5,771.280996 L117,771.280996 C136.037662,771.280996 148.588587,767.730176 160.444324,764.378713 C171.130385,761.357903 181.255841,758.5 195,758.5 Z" fill="#1B1F22" fill-rule="evenodd"></path>
        </g>
    </g>
</svg>