<?xml version="1.0" encoding="UTF-8"?>
<svg width="219px" height="90px" viewBox="0 0 219 90" version="1.1" xmlns="http://www.w3.org/2000/svg" xmlns:xlink="http://www.w3.org/1999/xlink">
    <title>MUJ UNIFIED</title>
    <defs>
        <linearGradient x1="97.8144186%" y1="82.0487248%" x2="25.4516882%" y2="17.9512752%" id="linearGradient-1">
            <stop stop-color="#E69277" stop-opacity="0.892463737" offset="0.0897174115%"></stop>
            <stop stop-color="#FFCDBD" stop-opacity="0.852106268" offset="100%"></stop>
        </linearGradient>
        <path d="M56.03,26.416 C56.3073333,26.416 56.55,26.338 56.758,26.182 C56.966,26.026 57.07,25.792 57.07,25.48 L57.07,1.768 C57.07,1.456 56.966,1.23933333 56.758,1.118 C56.55,0.996666667 56.3073333,0.936 56.03,0.936 L56.03,0 L65.754,0 L65.754,0.936 C65.5806667,0.936 65.3986667,0.988 65.208,1.092 C65.0173333,1.196 64.922,1.352 64.922,1.56 C64.922,1.73333333 64.9913333,1.95866667 65.13,2.236 C65.2686667,2.51333333 65.4246667,2.808 65.598,3.12 L73.034,16.64 L80.522,3.276 C80.7646667,2.82533333 80.9466667,2.47 81.068,2.21 C81.1893333,1.95 81.25,1.716 81.25,1.508 C81.25,1.12666667 81.0246667,0.936 80.574,0.936 L80.574,0 L90.194,0 L90.194,0.936 C89.9166667,0.936 89.674,0.996666667 89.466,1.118 C89.258,1.23933333 89.154,1.456 89.154,1.768 L89.154,25.48 C89.154,25.792 89.258,26.026 89.466,26.182 C89.674,26.338 89.9166667,26.416 90.194,26.416 L90.194,27.352 L82.03,27.352 L82.03,26.416 C82.966,26.416 83.434,26.104 83.434,25.48 L83.434,8.216 L83.33,8.216 L72.878,27.352 L72.722,27.352 L62.478,8.164 L62.374,8.164 L62.374,25.48 C62.374,26.104 62.8593333,26.416 63.83,26.416 L63.83,27.352 L56.03,27.352 L56.03,26.416 Z" id="path-2"></path>
        <filter x="-17.6%" y="-21.9%" width="135.1%" height="143.9%" filterUnits="objectBoundingBox" id="filter-3">
            <feOffset dx="0" dy="0" in="SourceAlpha" result="shadowOffsetOuter1"></feOffset>
            <feGaussianBlur stdDeviation="2" in="shadowOffsetOuter1" result="shadowBlurOuter1"></feGaussianBlur>
            <feColorMatrix values="0 0 0 0 0.847058824   0 0 0 0 0.647058824   0 0 0 0 0.580392157  0 0 0 1 0" type="matrix" in="shadowBlurOuter1"></feColorMatrix>
        </filter>
        <linearGradient x1="97.8144186%" y1="90.1954898%" x2="25.4516882%" y2="9.8045102%" id="linearGradient-4">
            <stop stop-color="#E69277" stop-opacity="0.892463737" offset="0.0897174115%"></stop>
            <stop stop-color="#FFCDBD" stop-opacity="0.852106268" offset="100%"></stop>
        </linearGradient>
        <path d="M106.73,0.936 C105.967333,0.936 105.586,1.248 105.586,1.872 L105.586,17.472 C105.586,19.656 106.288,21.1553333 107.692,21.97 C109.096,22.7846667 111.15,23.192 113.854,23.192 C116.558,23.192 118.612,22.7846667 120.016,21.97 C121.42,21.1553333 122.122,19.656 122.122,17.472 L122.122,1.872 C122.122,1.248 121.602,0.936 120.562,0.936 L120.562,0 L128.882,0 L128.882,0.936 C128.05,0.936 127.634,1.248 127.634,1.872 L127.634,17.212 C127.634,19.2573333 127.339333,20.9473333 126.75,22.282 C126.160667,23.6166667 125.276667,24.6826667 124.098,25.48 C122.919333,26.2773333 121.454667,26.8146667 119.704,27.092 C117.953333,27.3693333 115.934,27.508 113.646,27.508 C111.358,27.508 109.338667,27.3693333 107.588,27.092 C105.837333,26.8146667 104.372667,26.2773333 103.194,25.48 C102.015333,24.6826667 101.131333,23.6166667 100.542,22.282 C99.9526667,20.9473333 99.658,19.2573333 99.658,17.212 L99.658,1.872 C99.658,1.248 99.1726667,0.936 98.202,0.936 L98.202,0 L106.73,0 L106.73,0.936 Z" id="path-5"></path>
        <filter x="-19.6%" y="-21.8%" width="139.1%" height="143.6%" filterUnits="objectBoundingBox" id="filter-6">
            <feOffset dx="0" dy="0" in="SourceAlpha" result="shadowOffsetOuter1"></feOffset>
            <feGaussianBlur stdDeviation="2" in="shadowOffsetOuter1" result="shadowBlurOuter1"></feGaussianBlur>
            <feColorMatrix values="0 0 0 0 0.847058824   0 0 0 0 0.647058824   0 0 0 0 0.580392157  0 0 0 1 0" type="matrix" in="shadowBlurOuter1"></feColorMatrix>
        </filter>
        <linearGradient x1="86.7860788%" y1="100%" x2="31.1137277%" y2="0%" id="linearGradient-7">
            <stop stop-color="#E69277" stop-opacity="0.892463737" offset="0.0897174115%"></stop>
            <stop stop-color="#FFCDBD" stop-opacity="0.852106268" offset="100%"></stop>
        </linearGradient>
        <path d="M134.186,19.76 L135.018,20.072 C135.122,20.6266667 135.390667,21.112 135.824,21.528 C136.257333,21.944 136.786,22.2993333 137.41,22.594 C138.034,22.8886667 138.71,23.114 139.438,23.27 C140.166,23.426 140.859333,23.504 141.518,23.504 C143.598,23.504 145.114667,23.2006667 146.068,22.594 C147.021333,21.9873333 147.498,20.852 147.498,19.188 L147.498,2.496 C147.498,2.01066667 147.29,1.62933333 146.874,1.352 C146.458,1.07466667 146.059333,0.936 145.678,0.936 L145.678,0 L155.558,0 L155.558,0.936 C154.968667,0.936 154.466,1.07466667 154.05,1.352 C153.634,1.62933333 153.426,2.01066667 153.426,2.496 L153.426,19.656 C153.426,21.008 153.14,22.1866667 152.568,23.192 C151.996,24.1973333 151.19,25.0293333 150.15,25.688 C149.11,26.3466667 147.879333,26.8146667 146.458,27.092 C145.036667,27.3693333 143.459333,27.508 141.726,27.508 C140.651333,27.508 139.663333,27.4386667 138.762,27.3 C137.860667,27.1613333 137.054667,26.9966667 136.344,26.806 C135.633333,26.6153333 135.009333,26.4333333 134.472,26.26 C133.934667,26.0866667 133.492667,26 133.146,26 C132.764667,26 132.452667,26.208 132.21,26.624 L131.43,26.104 L134.186,19.76 Z" id="path-8"></path>
        <filter x="-24.9%" y="-21.8%" width="149.7%" height="143.6%" filterUnits="objectBoundingBox" id="filter-9">
            <feOffset dx="0" dy="0" in="SourceAlpha" result="shadowOffsetOuter1"></feOffset>
            <feGaussianBlur stdDeviation="2" in="shadowOffsetOuter1" result="shadowBlurOuter1"></feGaussianBlur>
            <feColorMatrix values="0 0 0 0 0.847058824   0 0 0 0 0.647058824   0 0 0 0 0.580392157  0 0 0 1 0" type="matrix" in="shadowBlurOuter1"></feColorMatrix>
        </filter>
        <path d="M8.528,53.936 C7.76533333,53.936 7.384,54.248 7.384,54.872 L7.384,70.472 C7.384,72.656 8.086,74.1553333 9.49,74.97 C10.894,75.7846667 12.948,76.192 15.652,76.192 C18.356,76.192 20.41,75.7846667 21.814,74.97 C23.218,74.1553333 23.92,72.656 23.92,70.472 L23.92,54.872 C23.92,54.248 23.4,53.936 22.36,53.936 L22.36,53 L30.68,53 L30.68,53.936 C29.848,53.936 29.432,54.248 29.432,54.872 L29.432,70.212 C29.432,72.2573333 29.1373333,73.9473333 28.548,75.282 C27.9586667,76.6166667 27.0746667,77.6826667 25.896,78.48 C24.7173333,79.2773333 23.2526667,79.8146667 21.502,80.092 C19.7513333,80.3693333 17.732,80.508 15.444,80.508 C13.156,80.508 11.1366667,80.3693333 9.386,80.092 C7.63533333,79.8146667 6.17066667,79.2773333 4.992,78.48 C3.81333333,77.6826667 2.92933333,76.6166667 2.34,75.282 C1.75066667,73.9473333 1.456,72.2573333 1.456,70.212 L1.456,54.872 C1.456,54.248 0.970666667,53.936 0,53.936 L0,53 L8.528,53 L8.528,53.936 Z" id="path-10"></path>
        <filter x="-19.6%" y="-21.8%" width="139.1%" height="143.6%" filterUnits="objectBoundingBox" id="filter-11">
            <feOffset dx="0" dy="0" in="SourceAlpha" result="shadowOffsetOuter1"></feOffset>
            <feGaussianBlur stdDeviation="2" in="shadowOffsetOuter1" result="shadowBlurOuter1"></feGaussianBlur>
            <feColorMatrix values="0 0 0 0 0.847058824   0 0 0 0 0.647058824   0 0 0 0 0.580392157  0 0 0 1 0" type="matrix" in="shadowBlurOuter1"></feColorMatrix>
        </filter>
        <linearGradient x1="97.8144186%" y1="89.0757715%" x2="25.4516882%" y2="10.9242285%" id="linearGradient-12">
            <stop stop-color="#E69277" stop-opacity="0.892463737" offset="0.0897174115%"></stop>
            <stop stop-color="#FFCDBD" stop-opacity="0.852106268" offset="100%"></stop>
        </linearGradient>
        <path d="M38.844,79.416 C39.5026667,79.416 39.832,79.104 39.832,78.48 L39.832,54.872 C39.832,54.248 39.5026667,53.936 38.844,53.936 L38.844,53 L47.736,53 L47.736,53.936 C47.4586667,53.936 47.32,54.1093333 47.32,54.456 C47.32,54.7333333 47.6666667,55.2186667 48.36,55.912 L63.284,71.408 L63.284,54.872 C63.284,54.248 62.8333333,53.936 61.932,53.936 L61.932,53 L69.784,53 L69.784,53.936 C69.1253333,53.936 68.796,54.248 68.796,54.872 L68.796,78.48 C68.796,79.104 69.1253333,79.416 69.784,79.416 L69.784,80.352 L61.36,80.352 L61.36,79.416 C61.8106667,79.416 62.036,79.26 62.036,78.948 C62.036,78.7053333 61.7586667,78.3066667 61.204,77.752 L45.344,61.216 L45.344,78.48 C45.344,79.104 45.7426667,79.416 46.54,79.416 L46.54,80.352 L38.844,80.352 L38.844,79.416 Z" id="path-13"></path>
        <filter x="-19.4%" y="-21.9%" width="138.8%" height="143.9%" filterUnits="objectBoundingBox" id="filter-14">
            <feOffset dx="0" dy="0" in="SourceAlpha" result="shadowOffsetOuter1"></feOffset>
            <feGaussianBlur stdDeviation="2" in="shadowOffsetOuter1" result="shadowBlurOuter1"></feGaussianBlur>
            <feColorMatrix values="0 0 0 0 0.847058824   0 0 0 0 0.647058824   0 0 0 0 0.580392157  0 0 0 1 0" type="matrix" in="shadowBlurOuter1"></feColorMatrix>
        </filter>
        <linearGradient x1="54.7621554%" y1="100%" x2="47.5550706%" y2="0%" id="linearGradient-15">
            <stop stop-color="#E69277" stop-opacity="0.892463737" offset="0.0897174115%"></stop>
            <stop stop-color="#FFCDBD" stop-opacity="0.852106268" offset="100%"></stop>
        </linearGradient>
        <path d="M78.884,79.416 C79.7853333,79.416 80.236,79.104 80.236,78.48 L80.236,54.872 C80.236,54.248 79.7853333,53.936 78.884,53.936 L78.884,53 L87.516,53 L87.516,53.936 C86.6146667,53.936 86.164,54.248 86.164,54.872 L86.164,78.48 C86.164,79.104 86.6146667,79.416 87.516,79.416 L87.516,80.352 L78.884,80.352 L78.884,79.416 Z" id="path-16"></path>
        <filter x="-69.5%" y="-21.9%" width="239.0%" height="143.9%" filterUnits="objectBoundingBox" id="filter-17">
            <feOffset dx="0" dy="0" in="SourceAlpha" result="shadowOffsetOuter1"></feOffset>
            <feGaussianBlur stdDeviation="2" in="shadowOffsetOuter1" result="shadowBlurOuter1"></feGaussianBlur>
            <feColorMatrix values="0 0 0 0 0.847058824   0 0 0 0 0.647058824   0 0 0 0 0.580392157  0 0 0 1 0" type="matrix" in="shadowBlurOuter1"></feColorMatrix>
        </filter>
        <linearGradient x1="92.740558%" y1="100%" x2="28.0566496%" y2="0%" id="linearGradient-18">
            <stop stop-color="#E69277" stop-opacity="0.892463737" offset="0.0897174115%"></stop>
            <stop stop-color="#FFCDBD" stop-opacity="0.852106268" offset="100%"></stop>
        </linearGradient>
        <path d="M121.42,58.616 C121.42,58.2346667 121.272667,57.9486667 120.978,57.758 C120.683333,57.5673333 120.172,57.472 119.444,57.472 L102.596,57.472 L102.596,63.92 L112.788,63.92 C113.481333,63.92 114.018667,63.8506667 114.4,63.712 C114.781333,63.5733333 114.972,63.2613333 114.972,62.776 L115.908,62.776 L115.908,70.264 L114.972,70.264 C114.972,69.4666667 114.781333,68.9553333 114.4,68.73 C114.018667,68.5046667 113.481333,68.392 112.788,68.392 L102.596,68.392 L102.596,78.48 C102.596,78.792 102.743333,79.026 103.038,79.182 C103.332667,79.338 103.705333,79.416 104.156,79.416 L104.156,80.352 L95.316,80.352 L95.316,79.416 C96.2173333,79.416 96.668,79.104 96.668,78.48 L96.668,54.872 C96.668,54.248 96.2173333,53.936 95.316,53.936 L95.316,53 L119.444,53 C120.172,53 120.683333,52.8873333 120.978,52.662 C121.272667,52.4366667 121.42,52.1333333 121.42,51.752 L122.356,51.752 L122.356,58.616 L121.42,58.616 Z" id="path-19"></path>
        <filter x="-22.2%" y="-21.0%" width="144.4%" height="142.0%" filterUnits="objectBoundingBox" id="filter-20">
            <feOffset dx="0" dy="0" in="SourceAlpha" result="shadowOffsetOuter1"></feOffset>
            <feGaussianBlur stdDeviation="2" in="shadowOffsetOuter1" result="shadowBlurOuter1"></feGaussianBlur>
            <feColorMatrix values="0 0 0 0 0.847058824   0 0 0 0 0.647058824   0 0 0 0 0.580392157  0 0 0 1 0" type="matrix" in="shadowBlurOuter1"></feColorMatrix>
        </filter>
        <path d="M127.972,79.416 C128.873333,79.416 129.324,79.104 129.324,78.48 L129.324,54.872 C129.324,54.248 128.873333,53.936 127.972,53.936 L127.972,53 L136.604,53 L136.604,53.936 C135.702667,53.936 135.252,54.248 135.252,54.872 L135.252,78.48 C135.252,79.104 135.702667,79.416 136.604,79.416 L136.604,80.352 L127.972,80.352 L127.972,79.416 Z" id="path-21"></path>
        <filter x="-69.5%" y="-21.9%" width="239.0%" height="143.9%" filterUnits="objectBoundingBox" id="filter-22">
            <feOffset dx="0" dy="0" in="SourceAlpha" result="shadowOffsetOuter1"></feOffset>
            <feGaussianBlur stdDeviation="2" in="shadowOffsetOuter1" result="shadowBlurOuter1"></feGaussianBlur>
            <feColorMatrix values="0 0 0 0 0.847058824   0 0 0 0 0.647058824   0 0 0 0 0.580392157  0 0 0 1 0" type="matrix" in="shadowBlurOuter1"></feColorMatrix>
        </filter>
        <linearGradient x1="89.6272437%" y1="100%" x2="29.6550505%" y2="0%" id="linearGradient-23">
            <stop stop-color="#E69277" stop-opacity="0.892463737" offset="0.0897174115%"></stop>
            <stop stop-color="#FFCDBD" stop-opacity="0.852106268" offset="100%"></stop>
        </linearGradient>
        <path d="M171.132,58.616 C171.132,58.2346667 170.984667,57.9486667 170.69,57.758 C170.395333,57.5673333 169.884,57.472 169.156,57.472 L152.308,57.472 L152.308,63.92 L162.5,63.92 C163.193333,63.92 163.730667,63.8246667 164.112,63.634 C164.493333,63.4433333 164.684,62.9493333 164.684,62.152 L165.62,62.152 L165.62,70.264 L164.684,70.264 C164.684,69.4666667 164.493333,68.9553333 164.112,68.73 C163.730667,68.5046667 163.193333,68.392 162.5,68.392 L152.308,68.392 L152.308,75.568 L169.676,75.568 C170.196,75.568 170.620667,75.4466667 170.95,75.204 C171.279333,74.9613333 171.444,74.632 171.444,74.216 L172.38,74.216 L172.38,81.34 L171.444,81.34 C171.444,80.82 171.279333,80.5253333 170.95,80.456 C170.620667,80.3866667 170.196,80.352 169.676,80.352 L145.444,80.352 L145.444,79.416 C145.686667,79.416 145.903333,79.338 146.094,79.182 C146.284667,79.026 146.38,78.792 146.38,78.48 L146.38,54.872 C146.38,54.56 146.284667,54.326 146.094,54.17 C145.903333,54.014 145.686667,53.936 145.444,53.936 L145.444,53 L169.156,53 C169.884,53 170.395333,52.8873333 170.69,52.662 C170.984667,52.4366667 171.132,52.1333333 171.132,51.752 L172.068,51.752 L172.068,58.616 L171.132,58.616 Z" id="path-24"></path>
        <filter x="-22.3%" y="-20.3%" width="144.6%" height="140.6%" filterUnits="objectBoundingBox" id="filter-25">
            <feOffset dx="0" dy="0" in="SourceAlpha" result="shadowOffsetOuter1"></feOffset>
            <feGaussianBlur stdDeviation="2" in="shadowOffsetOuter1" result="shadowBlurOuter1"></feGaussianBlur>
            <feColorMatrix values="0 0 0 0 0.847058824   0 0 0 0 0.647058824   0 0 0 0 0.580392157  0 0 0 1 0" type="matrix" in="shadowBlurOuter1"></feColorMatrix>
        </filter>
        <linearGradient x1="97.8144186%" y1="89.4728132%" x2="25.4516882%" y2="10.5271868%" id="linearGradient-26">
            <stop stop-color="#E69277" stop-opacity="0.892463737" offset="0.0897174115%"></stop>
            <stop stop-color="#FFCDBD" stop-opacity="0.852106268" offset="100%"></stop>
        </linearGradient>
        <path d="M194.688,75.88 C196.317333,75.88 197.738667,75.7413333 198.952,75.464 C200.165333,75.1866667 201.170667,74.6926667 201.968,73.982 C202.765333,73.2713333 203.363333,72.3266667 203.762,71.148 C204.160667,69.9693333 204.36,68.4786667 204.36,66.676 C204.36,64.8733333 204.160667,63.3826667 203.762,62.204 C203.363333,61.0253333 202.765333,60.0806667 201.968,59.37 C201.170667,58.6593333 200.165333,58.1653333 198.952,57.888 C197.738667,57.6106667 196.317333,57.472 194.688,57.472 L186.628,57.472 L186.628,75.88 L194.688,75.88 Z M196.768,53 C198.674667,53 200.451333,53.2773333 202.098,53.832 C203.744667,54.3866667 205.174667,55.2273333 206.388,56.354 C207.601333,57.4806667 208.554667,58.902 209.248,60.618 C209.941333,62.334 210.288,64.3533333 210.288,66.676 C210.288,68.9986667 209.941333,71.018 209.248,72.734 C208.554667,74.45 207.601333,75.8713333 206.388,76.998 C205.174667,78.1246667 203.744667,78.9653333 202.098,79.52 C200.451333,80.0746667 198.674667,80.352 196.768,80.352 L179.504,80.352 L179.504,79.416 C180.301333,79.416 180.7,79.104 180.7,78.48 L180.7,54.872 C180.7,54.248 180.301333,53.936 179.504,53.936 L179.504,53 L196.768,53 Z" id="path-27"></path>
        <filter x="-19.5%" y="-21.9%" width="139.0%" height="143.9%" filterUnits="objectBoundingBox" id="filter-28">
            <feOffset dx="0" dy="0" in="SourceAlpha" result="shadowOffsetOuter1"></feOffset>
            <feGaussianBlur stdDeviation="2" in="shadowOffsetOuter1" result="shadowBlurOuter1"></feGaussianBlur>
            <feColorMatrix values="0 0 0 0 0.847058824   0 0 0 0 0.647058824   0 0 0 0 0.580392157  0 0 0 1 0" type="matrix" in="shadowBlurOuter1"></feColorMatrix>
        </filter>
    </defs>
    <g id="Page-1" stroke="none" stroke-width="1" fill="none" fill-rule="evenodd">
        <g id="iPhone-13" transform="translate(-86.000000, -190.000000)" fill-rule="nonzero">
            <g id="MUJ-UNIFIED" transform="translate(90.616000, 194.648000)">
                <g id="Path">
                    <use fill="black" fill-opacity="1" filter="url(#filter-3)" xlink:href="#path-2"></use>
                    <use fill="url(#linearGradient-1)" xlink:href="#path-2"></use>
                </g>
                <g id="Path">
                    <use fill="black" fill-opacity="1" filter="url(#filter-6)" xlink:href="#path-5"></use>
                    <use fill="url(#linearGradient-4)" xlink:href="#path-5"></use>
                </g>
                <g id="Path">
                    <use fill="black" fill-opacity="1" filter="url(#filter-9)" xlink:href="#path-8"></use>
                    <use fill="url(#linearGradient-7)" xlink:href="#path-8"></use>
                </g>
                <g id="Path">
                    <use fill="black" fill-opacity="1" filter="url(#filter-11)" xlink:href="#path-10"></use>
                    <use fill="url(#linearGradient-4)" xlink:href="#path-10"></use>
                </g>
                <g id="Path">
                    <use fill="black" fill-opacity="1" filter="url(#filter-14)" xlink:href="#path-13"></use>
                    <use fill="url(#linearGradient-12)" xlink:href="#path-13"></use>
                </g>
                <g id="Path">
                    <use fill="black" fill-opacity="1" filter="url(#filter-17)" xlink:href="#path-16"></use>
                    <use fill="url(#linearGradient-15)" xlink:href="#path-16"></use>
                </g>
                <g id="Path">
                    <use fill="black" fill-opacity="1" filter="url(#filter-20)" xlink:href="#path-19"></use>
                    <use fill="url(#linearGradient-18)" xlink:href="#path-19"></use>
                </g>
                <g id="Path">
                    <use fill="black" fill-opacity="1" filter="url(#filter-22)" xlink:href="#path-21"></use>
                    <use fill="url(#linearGradient-15)" xlink:href="#path-21"></use>
                </g>
                <g id="Path">
                    <use fill="black" fill-opacity="1" filter="url(#filter-25)" xlink:href="#path-24"></use>
                    <use fill="url(#linearGradient-23)" xlink:href="#path-24"></use>
                </g>
                <g id="Shape">
                    <use fill="black" fill-opacity="1" filter="url(#filter-28)" xlink:href="#path-27"></use>
                    <use fill="url(#linearGradient-26)" xlink:href="#path-27"></use>
                </g>
            </g>
        </g>
    </g>
</svg>