<?xml version="1.0" encoding="UTF-8"?>
<svg width="177px" height="20px" viewBox="0 0 177 20" version="1.1" xmlns="http://www.w3.org/2000/svg" xmlns:xlink="http://www.w3.org/1999/xlink">
    <title>Create account</title>
    <defs>
        <linearGradient x1="25.5469703%" y1="17.2153286%" x2="83.5010671%" y2="94.9155581%" id="linearGradient-1">
            <stop stop-color="#9E9494" stop-opacity="0.55131136" offset="0%"></stop>
            <stop stop-color="#CACACA" stop-opacity="0.742618251" offset="49.194592%"></stop>
            <stop stop-color="#8E8E8E" stop-opacity="0.900542573" offset="100%"></stop>
        </linearGradient>
        <linearGradient x1="39.3250205%" y1="17.2153286%" x2="64.6249037%" y2="94.9155581%" id="linearGradient-2">
            <stop stop-color="#9E9494" stop-opacity="0.55131136" offset="0%"></stop>
            <stop stop-color="#CACACA" stop-opacity="0.742618251" offset="49.194592%"></stop>
            <stop stop-color="#8E8E8E" stop-opacity="0.900542573" offset="100%"></stop>
        </linearGradient>
        <linearGradient x1="22.8149742%" y1="17.2153286%" x2="87.2439483%" y2="94.9155581%" id="linearGradient-3">
            <stop stop-color="#9E9494" stop-opacity="0.55131136" offset="0%"></stop>
            <stop stop-color="#CACACA" stop-opacity="0.742618251" offset="49.194592%"></stop>
            <stop stop-color="#8E8E8E" stop-opacity="0.900542573" offset="100%"></stop>
        </linearGradient>
        <linearGradient x1="20.6115126%" y1="17.2153286%" x2="90.2627282%" y2="94.9155581%" id="linearGradient-4">
            <stop stop-color="#9E9494" stop-opacity="0.55131136" offset="0%"></stop>
            <stop stop-color="#CACACA" stop-opacity="0.742618251" offset="49.194592%"></stop>
            <stop stop-color="#8E8E8E" stop-opacity="0.900542573" offset="100%"></stop>
        </linearGradient>
        <linearGradient x1="43.4328225%" y1="17.2153286%" x2="58.997145%" y2="94.9155581%" id="linearGradient-5">
            <stop stop-color="#9E9494" stop-opacity="0.55131136" offset="0%"></stop>
            <stop stop-color="#CACACA" stop-opacity="0.742618251" offset="49.194592%"></stop>
            <stop stop-color="#8E8E8E" stop-opacity="0.900542573" offset="100%"></stop>
        </linearGradient>
        <linearGradient x1="23.7144254%" y1="17.2153286%" x2="86.0116847%" y2="94.9155581%" id="linearGradient-6">
            <stop stop-color="#9E9494" stop-opacity="0.55131136" offset="0%"></stop>
            <stop stop-color="#CACACA" stop-opacity="0.742618251" offset="49.194592%"></stop>
            <stop stop-color="#8E8E8E" stop-opacity="0.900542573" offset="100%"></stop>
        </linearGradient>
        <linearGradient x1="19.9240859%" y1="17.2153286%" x2="91.2045145%" y2="94.9155581%" id="linearGradient-7">
            <stop stop-color="#9E9494" stop-opacity="0.55131136" offset="0%"></stop>
            <stop stop-color="#CACACA" stop-opacity="0.742618251" offset="49.194592%"></stop>
            <stop stop-color="#8E8E8E" stop-opacity="0.900542573" offset="100%"></stop>
        </linearGradient>
        <linearGradient x1="26.0341135%" y1="17.2153286%" x2="82.8336726%" y2="94.9155581%" id="linearGradient-8">
            <stop stop-color="#9E9494" stop-opacity="0.55131136" offset="0%"></stop>
            <stop stop-color="#CACACA" stop-opacity="0.742618251" offset="49.194592%"></stop>
            <stop stop-color="#8E8E8E" stop-opacity="0.900542573" offset="100%"></stop>
        </linearGradient>
    </defs>
    <g id="Page-1" stroke="none" stroke-width="1" fill="none" fill-rule="evenodd">
        <g id="iPhone-13" transform="translate(-34.000000, -189.000000)" fill-rule="nonzero">
            <g id="Create-account" transform="translate(34.950000, 189.725000)">
                <path d="M13,6.1 C12.8666667,5.58333333 12.6833333,5.10833333 12.45,4.675 C12.2166667,4.24166667 11.9166667,3.86666667 11.55,3.55 C11.1833333,3.23333333 10.7541667,2.9875 10.2625,2.8125 C9.77083333,2.6375 9.2,2.55 8.55,2.55 C7.6,2.55 6.77916667,2.74166667 6.0875,3.125 C5.39583333,3.50833333 4.83333333,4.02083333 4.4,4.6625 C3.96666667,5.30416667 3.64583333,6.03333333 3.4375,6.85 C3.22916667,7.66666667 3.125,8.5 3.125,9.35 C3.125,10.2 3.22916667,11.0333333 3.4375,11.85 C3.64583333,12.6666667 3.96666667,13.3958333 4.4,14.0375 C4.83333333,14.6791667 5.39583333,15.1916667 6.0875,15.575 C6.77916667,15.9583333 7.6,16.15 8.55,16.15 C9.25,16.15 9.86666667,16.0291667 10.4,15.7875 C10.9333333,15.5458333 11.3916667,15.2125 11.775,14.7875 C12.1583333,14.3625 12.4583333,13.8666667 12.675,13.3 C12.8916667,12.7333333 13.0333333,12.125 13.1,11.475 L16.15,11.475 C16.0833333,12.5416667 15.8541667,13.5166667 15.4625,14.4 C15.0708333,15.2833333 14.5416667,16.0458333 13.875,16.6875 C13.2083333,17.3291667 12.425,17.825 11.525,18.175 C10.625,18.525 9.63333333,18.7 8.55,18.7 C7.21666667,18.7 6.02083333,18.4541667 4.9625,17.9625 C3.90416667,17.4708333 3.00833333,16.8 2.275,15.95 C1.54166667,15.1 0.979166667,14.1083333 0.5875,12.975 C0.195833333,11.8416667 0,10.6333333 0,9.35 C0,8.08333333 0.195833333,6.88333333 0.5875,5.75 C0.979166667,4.61666667 1.54166667,3.625 2.275,2.775 C3.00833333,1.925 3.90416667,1.25 4.9625,0.75 C6.02083333,0.25 7.21666667,5.68434189e-14 8.55,5.68434189e-14 C9.55,5.68434189e-14 10.4916667,0.1375 11.375,0.4125 C12.2583333,0.6875 13.0375,1.0875 13.7125,1.6125 C14.3875,2.1375 14.9333333,2.775 15.35,3.525 C15.7666667,4.275 16.025,5.13333333 16.125,6.1 L13,6.1 Z" id="Path" fill="url(#linearGradient-1)"></path>
                <path d="M18.6,5.35 L21.275,5.35 L21.275,7.85 L21.325,7.85 C21.4083333,7.5 21.5708333,7.15833333 21.8125,6.825 C22.0541667,6.49166667 22.3458333,6.1875 22.6875,5.9125 C23.0291667,5.6375 23.4083333,5.41666667 23.825,5.25 C24.2416667,5.08333333 24.6666667,5 25.1,5 C25.4333333,5 25.6625,5.00833333 25.7875,5.025 C25.9125,5.04166667 26.0416667,5.05833333 26.175,5.075 L26.175,7.825 C25.975,7.79166667 25.7708333,7.7625 25.5625,7.7375 C25.3541667,7.7125 25.15,7.7 24.95,7.7 C24.4666667,7.7 24.0125,7.79583333 23.5875,7.9875 C23.1625,8.17916667 22.7916667,8.4625 22.475,8.8375 C22.1583333,9.2125 21.9083333,9.675 21.725,10.225 C21.5416667,10.775 21.45,11.4083333 21.45,12.125 L21.45,18.275 L18.6,18.275 L18.6,5.35 Z" id="Path" fill="url(#linearGradient-2)"></path>
                <path d="M36.275,10.675 C36.2416667,10.225 36.1458333,9.79166667 35.9875,9.375 C35.8291667,8.95833333 35.6125,8.59583333 35.3375,8.2875 C35.0625,7.97916667 34.7291667,7.72916667 34.3375,7.5375 C33.9458333,7.34583333 33.5083333,7.25 33.025,7.25 C32.525,7.25 32.0708333,7.3375 31.6625,7.5125 C31.2541667,7.6875 30.9041667,7.92916667 30.6125,8.2375 C30.3208333,8.54583333 30.0875,8.90833333 29.9125,9.325 C29.7375,9.74166667 29.6416667,10.1916667 29.625,10.675 L36.275,10.675 Z M29.625,12.55 C29.625,13.05 29.6958333,13.5333333 29.8375,14 C29.9791667,14.4666667 30.1916667,14.875 30.475,15.225 C30.7583333,15.575 31.1166667,15.8541667 31.55,16.0625 C31.9833333,16.2708333 32.5,16.375 33.1,16.375 C33.9333333,16.375 34.6041667,16.1958333 35.1125,15.8375 C35.6208333,15.4791667 36,14.9416667 36.25,14.225 L38.95,14.225 C38.8,14.925 38.5416667,15.55 38.175,16.1 C37.8083333,16.65 37.3666667,17.1125 36.85,17.4875 C36.3333333,17.8625 35.7541667,18.1458333 35.1125,18.3375 C34.4708333,18.5291667 33.8,18.625 33.1,18.625 C32.0833333,18.625 31.1833333,18.4583333 30.4,18.125 C29.6166667,17.7916667 28.9541667,17.325 28.4125,16.725 C27.8708333,16.125 27.4625,15.4083333 27.1875,14.575 C26.9125,13.7416667 26.775,12.825 26.775,11.825 C26.775,10.9083333 26.9208333,10.0375 27.2125,9.2125 C27.5041667,8.3875 27.9208333,7.6625 28.4625,7.0375 C29.0041667,6.4125 29.6583333,5.91666667 30.425,5.55 C31.1916667,5.18333333 32.0583333,5 33.025,5 C34.0416667,5 34.9541667,5.2125 35.7625,5.6375 C36.5708333,6.0625 37.2416667,6.625 37.775,7.325 C38.3083333,8.025 38.6958333,8.82916667 38.9375,9.7375 C39.1791667,10.6458333 39.2416667,11.5833333 39.125,12.55 L29.625,12.55 Z" id="Shape" fill="url(#linearGradient-3)"></path>
                <path d="M52.125,15.4 C52.125,15.75 52.1708333,16 52.2625,16.15 C52.3541667,16.3 52.5333333,16.375 52.8,16.375 C52.8833333,16.375 52.9833333,16.375 53.1,16.375 C53.2166667,16.375 53.35,16.3583333 53.5,16.325 L53.5,18.3 C53.4,18.3333333 53.2708333,18.3708333 53.1125,18.4125 C52.9541667,18.4541667 52.7916667,18.4916667 52.625,18.525 C52.4583333,18.5583333 52.2916667,18.5833333 52.125,18.6 C51.9583333,18.6166667 51.8166667,18.625 51.7,18.625 C51.1166667,18.625 50.6333333,18.5083333 50.25,18.275 C49.8666667,18.0416667 49.6166667,17.6333333 49.5,17.05 C48.9333333,17.6 48.2375,18 47.4125,18.25 C46.5875,18.5 45.7916667,18.625 45.025,18.625 C44.4416667,18.625 43.8833333,18.5458333 43.35,18.3875 C42.8166667,18.2291667 42.3458333,17.9958333 41.9375,17.6875 C41.5291667,17.3791667 41.2041667,16.9875 40.9625,16.5125 C40.7208333,16.0375 40.6,15.4833333 40.6,14.85 C40.6,14.05 40.7458333,13.4 41.0375,12.9 C41.3291667,12.4 41.7125,12.0083333 42.1875,11.725 C42.6625,11.4416667 43.1958333,11.2375 43.7875,11.1125 C44.3791667,10.9875 44.975,10.8916667 45.575,10.825 C46.0916667,10.725 46.5833333,10.6541667 47.05,10.6125 C47.5166667,10.5708333 47.9291667,10.5 48.2875,10.4 C48.6458333,10.3 48.9291667,10.1458333 49.1375,9.9375 C49.3458333,9.72916667 49.45,9.41666667 49.45,9 C49.45,8.63333333 49.3625,8.33333333 49.1875,8.1 C49.0125,7.86666667 48.7958333,7.6875 48.5375,7.5625 C48.2791667,7.4375 47.9916667,7.35416667 47.675,7.3125 C47.3583333,7.27083333 47.0583333,7.25 46.775,7.25 C45.975,7.25 45.3166667,7.41666667 44.8,7.75 C44.2833333,8.08333333 43.9916667,8.6 43.925,9.3 L41.075,9.3 C41.125,8.46666667 41.325,7.775 41.675,7.225 C42.025,6.675 42.4708333,6.23333333 43.0125,5.9 C43.5541667,5.56666667 44.1666667,5.33333333 44.85,5.2 C45.5333333,5.06666667 46.2333333,5 46.95,5 C47.5833333,5 48.2083333,5.06666667 48.825,5.2 C49.4416667,5.33333333 49.9958333,5.55 50.4875,5.85 C50.9791667,6.15 51.375,6.5375 51.675,7.0125 C51.975,7.4875 52.125,8.06666667 52.125,8.75 L52.125,15.4 Z M49.275,11.8 C48.8416667,12.0833333 48.3083333,12.2541667 47.675,12.3125 C47.0416667,12.3708333 46.4083333,12.4583333 45.775,12.575 C45.475,12.625 45.1833333,12.6958333 44.9,12.7875 C44.6166667,12.8791667 44.3666667,13.0041667 44.15,13.1625 C43.9333333,13.3208333 43.7625,13.5291667 43.6375,13.7875 C43.5125,14.0458333 43.45,14.3583333 43.45,14.725 C43.45,15.0416667 43.5416667,15.3083333 43.725,15.525 C43.9083333,15.7416667 44.1291667,15.9125 44.3875,16.0375 C44.6458333,16.1625 44.9291667,16.25 45.2375,16.3 C45.5458333,16.35 45.825,16.375 46.075,16.375 C46.3916667,16.375 46.7333333,16.3333333 47.1,16.25 C47.4666667,16.1666667 47.8125,16.025 48.1375,15.825 C48.4625,15.625 48.7333333,15.3708333 48.95,15.0625 C49.1666667,14.7541667 49.275,14.375 49.275,13.925 L49.275,11.8 Z" id="Shape" fill="url(#linearGradient-4)"></path>
                <path d="M53.9,5.35 L56.05,5.35 L56.05,1.475 L58.9,1.475 L58.9,5.35 L61.475,5.35 L61.475,7.475 L58.9,7.475 L58.9,14.375 C58.9,14.675 58.9125,14.9333333 58.9375,15.15 C58.9625,15.3666667 59.0208333,15.55 59.1125,15.7 C59.2041667,15.85 59.3416667,15.9625 59.525,16.0375 C59.7083333,16.1125 59.9583333,16.15 60.275,16.15 C60.475,16.15 60.675,16.1458333 60.875,16.1375 C61.075,16.1291667 61.275,16.1 61.475,16.05 L61.475,18.25 C61.1583333,18.2833333 60.85,18.3166667 60.55,18.35 C60.25,18.3833333 59.9416667,18.4 59.625,18.4 C58.875,18.4 58.2708333,18.3291667 57.8125,18.1875 C57.3541667,18.0458333 56.9958333,17.8375 56.7375,17.5625 C56.4791667,17.2875 56.3041667,16.9416667 56.2125,16.525 C56.1208333,16.1083333 56.0666667,15.6333333 56.05,15.1 L56.05,7.475 L53.9,7.475 L53.9,5.35 Z" id="Path" fill="url(#linearGradient-5)"></path>
                <path d="M72.4,10.675 C72.3666667,10.225 72.2708333,9.79166667 72.1125,9.375 C71.9541667,8.95833333 71.7375,8.59583333 71.4625,8.2875 C71.1875,7.97916667 70.8541667,7.72916667 70.4625,7.5375 C70.0708333,7.34583333 69.6333333,7.25 69.15,7.25 C68.65,7.25 68.1958333,7.3375 67.7875,7.5125 C67.3791667,7.6875 67.0291667,7.92916667 66.7375,8.2375 C66.4458333,8.54583333 66.2125,8.90833333 66.0375,9.325 C65.8625,9.74166667 65.7666667,10.1916667 65.75,10.675 L72.4,10.675 Z M65.75,12.55 C65.75,13.05 65.8208333,13.5333333 65.9625,14 C66.1041667,14.4666667 66.3166667,14.875 66.6,15.225 C66.8833333,15.575 67.2416667,15.8541667 67.675,16.0625 C68.1083333,16.2708333 68.625,16.375 69.225,16.375 C70.0583333,16.375 70.7291667,16.1958333 71.2375,15.8375 C71.7458333,15.4791667 72.125,14.9416667 72.375,14.225 L75.075,14.225 C74.925,14.925 74.6666667,15.55 74.3,16.1 C73.9333333,16.65 73.4916667,17.1125 72.975,17.4875 C72.4583333,17.8625 71.8791667,18.1458333 71.2375,18.3375 C70.5958333,18.5291667 69.925,18.625 69.225,18.625 C68.2083333,18.625 67.3083333,18.4583333 66.525,18.125 C65.7416667,17.7916667 65.0791667,17.325 64.5375,16.725 C63.9958333,16.125 63.5875,15.4083333 63.3125,14.575 C63.0375,13.7416667 62.9,12.825 62.9,11.825 C62.9,10.9083333 63.0458333,10.0375 63.3375,9.2125 C63.6291667,8.3875 64.0458333,7.6625 64.5875,7.0375 C65.1291667,6.4125 65.7833333,5.91666667 66.55,5.55 C67.3166667,5.18333333 68.1833333,5 69.15,5 C70.1666667,5 71.0791667,5.2125 71.8875,5.6375 C72.6958333,6.0625 73.3666667,6.625 73.9,7.325 C74.4333333,8.025 74.8208333,8.82916667 75.0625,9.7375 C75.3041667,10.6458333 75.3666667,11.5833333 75.25,12.55 L65.75,12.55 Z" id="Shape" fill="url(#linearGradient-3)"></path>
                <path d="M95.2,15.4 C95.2,15.75 95.2458333,16 95.3375,16.15 C95.4291667,16.3 95.6083333,16.375 95.875,16.375 C95.9583333,16.375 96.0583333,16.375 96.175,16.375 C96.2916667,16.375 96.425,16.3583333 96.575,16.325 L96.575,18.3 C96.475,18.3333333 96.3458333,18.3708333 96.1875,18.4125 C96.0291667,18.4541667 95.8666667,18.4916667 95.7,18.525 C95.5333333,18.5583333 95.3666667,18.5833333 95.2,18.6 C95.0333333,18.6166667 94.8916667,18.625 94.775,18.625 C94.1916667,18.625 93.7083333,18.5083333 93.325,18.275 C92.9416667,18.0416667 92.6916667,17.6333333 92.575,17.05 C92.0083333,17.6 91.3125,18 90.4875,18.25 C89.6625,18.5 88.8666667,18.625 88.1,18.625 C87.5166667,18.625 86.9583333,18.5458333 86.425,18.3875 C85.8916667,18.2291667 85.4208333,17.9958333 85.0125,17.6875 C84.6041667,17.3791667 84.2791667,16.9875 84.0375,16.5125 C83.7958333,16.0375 83.675,15.4833333 83.675,14.85 C83.675,14.05 83.8208333,13.4 84.1125,12.9 C84.4041667,12.4 84.7875,12.0083333 85.2625,11.725 C85.7375,11.4416667 86.2708333,11.2375 86.8625,11.1125 C87.4541667,10.9875 88.05,10.8916667 88.65,10.825 C89.1666667,10.725 89.6583333,10.6541667 90.125,10.6125 C90.5916667,10.5708333 91.0041667,10.5 91.3625,10.4 C91.7208333,10.3 92.0041667,10.1458333 92.2125,9.9375 C92.4208333,9.72916667 92.525,9.41666667 92.525,9 C92.525,8.63333333 92.4375,8.33333333 92.2625,8.1 C92.0875,7.86666667 91.8708333,7.6875 91.6125,7.5625 C91.3541667,7.4375 91.0666667,7.35416667 90.75,7.3125 C90.4333333,7.27083333 90.1333333,7.25 89.85,7.25 C89.05,7.25 88.3916667,7.41666667 87.875,7.75 C87.3583333,8.08333333 87.0666667,8.6 87,9.3 L84.15,9.3 C84.2,8.46666667 84.4,7.775 84.75,7.225 C85.1,6.675 85.5458333,6.23333333 86.0875,5.9 C86.6291667,5.56666667 87.2416667,5.33333333 87.925,5.2 C88.6083333,5.06666667 89.3083333,5 90.025,5 C90.6583333,5 91.2833333,5.06666667 91.9,5.2 C92.5166667,5.33333333 93.0708333,5.55 93.5625,5.85 C94.0541667,6.15 94.45,6.5375 94.75,7.0125 C95.05,7.4875 95.2,8.06666667 95.2,8.75 L95.2,15.4 Z M92.35,11.8 C91.9166667,12.0833333 91.3833333,12.2541667 90.75,12.3125 C90.1166667,12.3708333 89.4833333,12.4583333 88.85,12.575 C88.55,12.625 88.2583333,12.6958333 87.975,12.7875 C87.6916667,12.8791667 87.4416667,13.0041667 87.225,13.1625 C87.0083333,13.3208333 86.8375,13.5291667 86.7125,13.7875 C86.5875,14.0458333 86.525,14.3583333 86.525,14.725 C86.525,15.0416667 86.6166667,15.3083333 86.8,15.525 C86.9833333,15.7416667 87.2041667,15.9125 87.4625,16.0375 C87.7208333,16.1625 88.0041667,16.25 88.3125,16.3 C88.6208333,16.35 88.9,16.375 89.15,16.375 C89.4666667,16.375 89.8083333,16.3333333 90.175,16.25 C90.5416667,16.1666667 90.8875,16.025 91.2125,15.825 C91.5375,15.625 91.8083333,15.3708333 92.025,15.0625 C92.2416667,14.7541667 92.35,14.375 92.35,13.925 L92.35,11.8 Z" id="Shape" fill="url(#linearGradient-4)"></path>
                <path d="M107,9.675 C106.883333,8.875 106.5625,8.27083333 106.0375,7.8625 C105.5125,7.45416667 104.85,7.25 104.05,7.25 C103.683333,7.25 103.291667,7.3125 102.875,7.4375 C102.458333,7.5625 102.075,7.79583333 101.725,8.1375 C101.375,8.47916667 101.083333,8.95416667 100.85,9.5625 C100.616667,10.1708333 100.5,10.9666667 100.5,11.95 C100.5,12.4833333 100.5625,13.0166667 100.6875,13.55 C100.8125,14.0833333 101.0125,14.5583333 101.2875,14.975 C101.5625,15.3916667 101.916667,15.7291667 102.35,15.9875 C102.783333,16.2458333 103.308333,16.375 103.925,16.375 C104.758333,16.375 105.445833,16.1166667 105.9875,15.6 C106.529167,15.0833333 106.866667,14.3583333 107,13.425 L109.85,13.425 C109.583333,15.1083333 108.945833,16.3958333 107.9375,17.2875 C106.929167,18.1791667 105.591667,18.625 103.925,18.625 C102.908333,18.625 102.0125,18.4541667 101.2375,18.1125 C100.4625,17.7708333 99.8083333,17.3041667 99.275,16.7125 C98.7416667,16.1208333 98.3375,15.4166667 98.0625,14.6 C97.7875,13.7833333 97.65,12.9 97.65,11.95 C97.65,10.9833333 97.7833333,10.075 98.05,9.225 C98.3166667,8.375 98.7166667,7.6375 99.25,7.0125 C99.7833333,6.3875 100.445833,5.89583333 101.2375,5.5375 C102.029167,5.17916667 102.958333,5 104.025,5 C104.775,5 105.4875,5.09583333 106.1625,5.2875 C106.8375,5.47916667 107.4375,5.76666667 107.9625,6.15 C108.4875,6.53333333 108.916667,7.01666667 109.25,7.6 C109.583333,8.18333333 109.783333,8.875 109.85,9.675 L107,9.675 Z" id="Path" fill="url(#linearGradient-6)"></path>
                <path d="M120.9,9.675 C120.783333,8.875 120.4625,8.27083333 119.9375,7.8625 C119.4125,7.45416667 118.75,7.25 117.95,7.25 C117.583333,7.25 117.191667,7.3125 116.775,7.4375 C116.358333,7.5625 115.975,7.79583333 115.625,8.1375 C115.275,8.47916667 114.983333,8.95416667 114.75,9.5625 C114.516667,10.1708333 114.4,10.9666667 114.4,11.95 C114.4,12.4833333 114.4625,13.0166667 114.5875,13.55 C114.7125,14.0833333 114.9125,14.5583333 115.1875,14.975 C115.4625,15.3916667 115.816667,15.7291667 116.25,15.9875 C116.683333,16.2458333 117.208333,16.375 117.825,16.375 C118.658333,16.375 119.345833,16.1166667 119.8875,15.6 C120.429167,15.0833333 120.766667,14.3583333 120.9,13.425 L123.75,13.425 C123.483333,15.1083333 122.845833,16.3958333 121.8375,17.2875 C120.829167,18.1791667 119.491667,18.625 117.825,18.625 C116.808333,18.625 115.9125,18.4541667 115.1375,18.1125 C114.3625,17.7708333 113.708333,17.3041667 113.175,16.7125 C112.641667,16.1208333 112.2375,15.4166667 111.9625,14.6 C111.6875,13.7833333 111.55,12.9 111.55,11.95 C111.55,10.9833333 111.683333,10.075 111.95,9.225 C112.216667,8.375 112.616667,7.6375 113.15,7.0125 C113.683333,6.3875 114.345833,5.89583333 115.1375,5.5375 C115.929167,5.17916667 116.858333,5 117.925,5 C118.675,5 119.3875,5.09583333 120.0625,5.2875 C120.7375,5.47916667 121.3375,5.76666667 121.8625,6.15 C122.3875,6.53333333 122.816667,7.01666667 123.15,7.6 C123.483333,8.18333333 123.683333,8.875 123.75,9.675 L120.9,9.675 Z" id="Path" fill="url(#linearGradient-6)"></path>
                <path d="M132,18.625 C130.966667,18.625 130.045833,18.4541667 129.2375,18.1125 C128.429167,17.7708333 127.745833,17.3 127.1875,16.7 C126.629167,16.1 126.204167,15.3833333 125.9125,14.55 C125.620833,13.7166667 125.475,12.8 125.475,11.8 C125.475,10.8166667 125.620833,9.90833333 125.9125,9.075 C126.204167,8.24166667 126.629167,7.525 127.1875,6.925 C127.745833,6.325 128.429167,5.85416667 129.2375,5.5125 C130.045833,5.17083333 130.966667,5 132,5 C133.033333,5 133.954167,5.17083333 134.7625,5.5125 C135.570833,5.85416667 136.254167,6.325 136.8125,6.925 C137.370833,7.525 137.795833,8.24166667 138.0875,9.075 C138.379167,9.90833333 138.525,10.8166667 138.525,11.8 C138.525,12.8 138.379167,13.7166667 138.0875,14.55 C137.795833,15.3833333 137.370833,16.1 136.8125,16.7 C136.254167,17.3 135.570833,17.7708333 134.7625,18.1125 C133.954167,18.4541667 133.033333,18.625 132,18.625 Z M132,16.375 C132.633333,16.375 133.183333,16.2416667 133.65,15.975 C134.116667,15.7083333 134.5,15.3583333 134.8,14.925 C135.1,14.4916667 135.320833,14.0041667 135.4625,13.4625 C135.604167,12.9208333 135.675,12.3666667 135.675,11.8 C135.675,11.25 135.604167,10.7 135.4625,10.15 C135.320833,9.6 135.1,9.1125 134.8,8.6875 C134.5,8.2625 134.116667,7.91666667 133.65,7.65 C133.183333,7.38333333 132.633333,7.25 132,7.25 C131.366667,7.25 130.816667,7.38333333 130.35,7.65 C129.883333,7.91666667 129.5,8.2625 129.2,8.6875 C128.9,9.1125 128.679167,9.6 128.5375,10.15 C128.395833,10.7 128.325,11.25 128.325,11.8 C128.325,12.3666667 128.395833,12.9208333 128.5375,13.4625 C128.679167,14.0041667 128.9,14.4916667 129.2,14.925 C129.5,15.3583333 129.883333,15.7083333 130.35,15.975 C130.816667,16.2416667 131.366667,16.375 132,16.375 Z" id="Shape" fill="url(#linearGradient-7)"></path>
                <path d="M152.25,18.275 L149.45,18.275 L149.45,16.475 L149.4,16.475 C149.05,17.125 148.529167,17.6458333 147.8375,18.0375 C147.145833,18.4291667 146.441667,18.625 145.725,18.625 C144.025,18.625 142.795833,18.2041667 142.0375,17.3625 C141.279167,16.5208333 140.9,15.25 140.9,13.55 L140.9,5.35 L143.75,5.35 L143.75,13.275 C143.75,14.4083333 143.966667,15.2083333 144.4,15.675 C144.833333,16.1416667 145.441667,16.375 146.225,16.375 C146.825,16.375 147.325,16.2833333 147.725,16.1 C148.125,15.9166667 148.45,15.6708333 148.7,15.3625 C148.95,15.0541667 149.129167,14.6833333 149.2375,14.25 C149.345833,13.8166667 149.4,13.35 149.4,12.85 L149.4,5.35 L152.25,5.35 L152.25,18.275 Z" id="Path" fill="url(#linearGradient-8)"></path>
                <path d="M155.25,5.35 L157.95,5.35 L157.95,7.25 L158,7.3 C158.433333,6.58333333 159,6.02083333 159.7,5.6125 C160.4,5.20416667 161.175,5 162.025,5 C163.441667,5 164.558333,5.36666667 165.375,6.1 C166.191667,6.83333333 166.6,7.93333333 166.6,9.4 L166.6,18.275 L163.75,18.275 L163.75,10.15 C163.716667,9.13333333 163.5,8.39583333 163.1,7.9375 C162.7,7.47916667 162.075,7.25 161.225,7.25 C160.741667,7.25 160.308333,7.3375 159.925,7.5125 C159.541667,7.6875 159.216667,7.92916667 158.95,8.2375 C158.683333,8.54583333 158.475,8.90833333 158.325,9.325 C158.175,9.74166667 158.1,10.1833333 158.1,10.65 L158.1,18.275 L155.25,18.275 L155.25,5.35 Z" id="Path" fill="url(#linearGradient-8)"></path>
                <path d="M168.3,5.35 L170.45,5.35 L170.45,1.475 L173.3,1.475 L173.3,5.35 L175.875,5.35 L175.875,7.475 L173.3,7.475 L173.3,14.375 C173.3,14.675 173.3125,14.9333333 173.3375,15.15 C173.3625,15.3666667 173.420833,15.55 173.5125,15.7 C173.604167,15.85 173.741667,15.9625 173.925,16.0375 C174.108333,16.1125 174.358333,16.15 174.675,16.15 C174.875,16.15 175.075,16.1458333 175.275,16.1375 C175.475,16.1291667 175.675,16.1 175.875,16.05 L175.875,18.25 C175.558333,18.2833333 175.25,18.3166667 174.95,18.35 C174.65,18.3833333 174.341667,18.4 174.025,18.4 C173.275,18.4 172.670833,18.3291667 172.2125,18.1875 C171.754167,18.0458333 171.395833,17.8375 171.1375,17.5625 C170.879167,17.2875 170.704167,16.9416667 170.6125,16.525 C170.520833,16.1083333 170.466667,15.6333333 170.45,15.1 L170.45,7.475 L168.3,7.475 L168.3,5.35 Z" id="Path" fill="url(#linearGradient-5)"></path>
            </g>
        </g>
    </g>
</svg>