<?xml version="1.0" encoding="UTF-8"?>
<svg width="70px" height="24px" viewBox="0 0 70 24" version="1.1" xmlns="http://www.w3.org/2000/svg" xmlns:xlink="http://www.w3.org/1999/xlink">
    <title>Log In</title>
    <defs>
        <linearGradient x1="26.6432063%" y1="0%" x2="73.3567937%" y2="100%" id="linearGradient-1">
            <stop stop-color="#9E9494" stop-opacity="0.55131136" offset="0%"></stop>
            <stop stop-color="#CACACA" stop-opacity="0.742618251" offset="49.194592%"></stop>
            <stop stop-color="#8E8E8E" stop-opacity="0.900542573" offset="100%"></stop>
        </linearGradient>
        <linearGradient x1="4.13113374%" y1="0%" x2="95.8688663%" y2="100%" id="linearGradient-2">
            <stop stop-color="#9E9494" stop-opacity="0.55131136" offset="0%"></stop>
            <stop stop-color="#CACACA" stop-opacity="0.742618251" offset="49.194592%"></stop>
            <stop stop-color="#8E8E8E" stop-opacity="0.900542573" offset="100%"></stop>
        </linearGradient>
        <linearGradient x1="26.6465878%" y1="0%" x2="73.3534122%" y2="100%" id="linearGradient-3">
            <stop stop-color="#9E9494" stop-opacity="0.55131136" offset="0%"></stop>
            <stop stop-color="#CACACA" stop-opacity="0.742618251" offset="49.194592%"></stop>
            <stop stop-color="#8E8E8E" stop-opacity="0.900542573" offset="100%"></stop>
        </linearGradient>
        <linearGradient x1="48.4675243%" y1="0%" x2="51.5324757%" y2="100%" id="linearGradient-4">
            <stop stop-color="#9E9494" stop-opacity="0.55131136" offset="0%"></stop>
            <stop stop-color="#CACACA" stop-opacity="0.742618251" offset="49.194592%"></stop>
            <stop stop-color="#8E8E8E" stop-opacity="0.900542573" offset="100%"></stop>
        </linearGradient>
        <linearGradient x1="13.4495551%" y1="0%" x2="86.5504449%" y2="100%" id="linearGradient-5">
            <stop stop-color="#9E9494" stop-opacity="0.55131136" offset="0%"></stop>
            <stop stop-color="#CACACA" stop-opacity="0.742618251" offset="49.194592%"></stop>
            <stop stop-color="#8E8E8E" stop-opacity="0.900542573" offset="100%"></stop>
        </linearGradient>
    </defs>
    <g id="Page-1" stroke="none" stroke-width="1" fill="none" fill-rule="evenodd">
        <g id="iPhone-13" transform="translate(-37.000000, -418.000000)" fill-rule="nonzero">
            <g id="Log-In" transform="translate(37.900000, 418.150000)">
                <polygon id="Path" fill="url(#linearGradient-1)" points="0 0 3.125 0 3.125 15.15 12.2 15.15 12.2 17.85 0 17.85"></polygon>
                <path d="M19.875,18.2 C18.8416667,18.2 17.9208333,18.0291667 17.1125,17.6875 C16.3041667,17.3458333 15.6208333,16.875 15.0625,16.275 C14.5041667,15.675 14.0791667,14.9583333 13.7875,14.125 C13.4958333,13.2916667 13.35,12.375 13.35,11.375 C13.35,10.3916667 13.4958333,9.48333333 13.7875,8.65 C14.0791667,7.81666667 14.5041667,7.1 15.0625,6.5 C15.6208333,5.9 16.3041667,5.42916667 17.1125,5.0875 C17.9208333,4.74583333 18.8416667,4.575 19.875,4.575 C20.9083333,4.575 21.8291667,4.74583333 22.6375,5.0875 C23.4458333,5.42916667 24.1291667,5.9 24.6875,6.5 C25.2458333,7.1 25.6708333,7.81666667 25.9625,8.65 C26.2541667,9.48333333 26.4,10.3916667 26.4,11.375 C26.4,12.375 26.2541667,13.2916667 25.9625,14.125 C25.6708333,14.9583333 25.2458333,15.675 24.6875,16.275 C24.1291667,16.875 23.4458333,17.3458333 22.6375,17.6875 C21.8291667,18.0291667 20.9083333,18.2 19.875,18.2 Z M19.875,15.95 C20.5083333,15.95 21.0583333,15.8166667 21.525,15.55 C21.9916667,15.2833333 22.375,14.9333333 22.675,14.5 C22.975,14.0666667 23.1958333,13.5791667 23.3375,13.0375 C23.4791667,12.4958333 23.55,11.9416667 23.55,11.375 C23.55,10.825 23.4791667,10.275 23.3375,9.725 C23.1958333,9.175 22.975,8.6875 22.675,8.2625 C22.375,7.8375 21.9916667,7.49166667 21.525,7.225 C21.0583333,6.95833333 20.5083333,6.825 19.875,6.825 C19.2416667,6.825 18.6916667,6.95833333 18.225,7.225 C17.7583333,7.49166667 17.375,7.8375 17.075,8.2625 C16.775,8.6875 16.5541667,9.175 16.4125,9.725 C16.2708333,10.275 16.2,10.825 16.2,11.375 C16.2,11.9416667 16.2708333,12.4958333 16.4125,13.0375 C16.5541667,13.5791667 16.775,14.0666667 17.075,14.5 C17.375,14.9333333 17.7583333,15.2833333 18.225,15.55 C18.6916667,15.8166667 19.2416667,15.95 19.875,15.95 Z" id="Shape" fill="url(#linearGradient-2)"></path>
                <path d="M40.725,17.175 C40.725,19.125 40.1791667,20.5791667 39.0875,21.5375 C37.9958333,22.4958333 36.425,22.975 34.375,22.975 C33.725,22.975 33.0708333,22.9083333 32.4125,22.775 C31.7541667,22.6416667 31.1541667,22.4166667 30.6125,22.1 C30.0708333,21.7833333 29.6166667,21.3666667 29.25,20.85 C28.8833333,20.3333333 28.6666667,19.7 28.6,18.95 L31.45,18.95 C31.5333333,19.35 31.675,19.675 31.875,19.925 C32.075,20.175 32.3125,20.3708333 32.5875,20.5125 C32.8625,20.6541667 33.1666667,20.7458333 33.5,20.7875 C33.8333333,20.8291667 34.1833333,20.85 34.55,20.85 C35.7,20.85 36.5416667,20.5666667 37.075,20 C37.6083333,19.4333333 37.875,18.6166667 37.875,17.55 L37.875,15.575 L37.825,15.575 C37.425,16.2916667 36.8791667,16.85 36.1875,17.25 C35.4958333,17.65 34.75,17.85 33.95,17.85 C32.9166667,17.85 32.0375,17.6708333 31.3125,17.3125 C30.5875,16.9541667 29.9875,16.4625 29.5125,15.8375 C29.0375,15.2125 28.6916667,14.4916667 28.475,13.675 C28.2583333,12.8583333 28.15,11.9833333 28.15,11.05 C28.15,10.1833333 28.2833333,9.35833333 28.55,8.575 C28.8166667,7.79166667 29.2,7.10416667 29.7,6.5125 C30.2,5.92083333 30.8125,5.45 31.5375,5.1 C32.2625,4.75 33.0833333,4.575 34,4.575 C34.8166667,4.575 35.5666667,4.74583333 36.25,5.0875 C36.9333333,5.42916667 37.4583333,5.96666667 37.825,6.7 L37.875,6.7 L37.875,4.925 L40.725,4.925 L40.725,17.175 Z M34.4,15.6 C35.0333333,15.6 35.5708333,15.4708333 36.0125,15.2125 C36.4541667,14.9541667 36.8125,14.6125 37.0875,14.1875 C37.3625,13.7625 37.5625,13.2791667 37.6875,12.7375 C37.8125,12.1958333 37.875,11.65 37.875,11.1 C37.875,10.55 37.8083333,10.0166667 37.675,9.5 C37.5416667,8.98333333 37.3375,8.525 37.0625,8.125 C36.7875,7.725 36.4291667,7.40833333 35.9875,7.175 C35.5458333,6.94166667 35.0166667,6.825 34.4,6.825 C33.7666667,6.825 33.2333333,6.95833333 32.8,7.225 C32.3666667,7.49166667 32.0166667,7.8375 31.75,8.2625 C31.4833333,8.6875 31.2916667,9.17083333 31.175,9.7125 C31.0583333,10.2541667 31,10.7916667 31,11.325 C31,11.8583333 31.0666667,12.3791667 31.2,12.8875 C31.3333333,13.3958333 31.5375,13.85 31.8125,14.25 C32.0875,14.65 32.4375,14.975 32.8625,15.225 C33.2875,15.475 33.8,15.6 34.4,15.6 Z" id="Shape" fill="url(#linearGradient-3)"></path>
                <polygon id="Path" fill="url(#linearGradient-4)" points="50.95 0 54.075 0 54.075 17.85 50.95 17.85"></polygon>
                <path d="M57.5,4.925 L60.2,4.925 L60.2,6.825 L60.25,6.875 C60.6833333,6.15833333 61.25,5.59583333 61.95,5.1875 C62.65,4.77916667 63.425,4.575 64.275,4.575 C65.6916667,4.575 66.8083333,4.94166667 67.625,5.675 C68.4416667,6.40833333 68.85,7.50833333 68.85,8.975 L68.85,17.85 L66,17.85 L66,9.725 C65.9666667,8.70833333 65.75,7.97083333 65.35,7.5125 C64.95,7.05416667 64.325,6.825 63.475,6.825 C62.9916667,6.825 62.5583333,6.9125 62.175,7.0875 C61.7916667,7.2625 61.4666667,7.50416667 61.2,7.8125 C60.9333333,8.12083333 60.725,8.48333333 60.575,8.9 C60.425,9.31666667 60.35,9.75833333 60.35,10.225 L60.35,17.85 L57.5,17.85 L57.5,4.925 Z" id="Path" fill="url(#linearGradient-5)"></path>
            </g>
        </g>
    </g>
</svg>